#Comment line ignore any data following # character 
#Hierarchical Translation and Rotation (.htr) file 
[Header]	
#Header keywords are followed by a single value 
FileType HTR		#Single word string
DataType HTRS		#Translation followed by rotation and scale data
FileVersion 1		#integer
NumSegments 84		#integer
NumFrames 2		#integer
DataFrameRate 30		#integer, data frame rate in this file
EulerRotationOrder ZYX
CalibrationUnits mm
RotationUnits Degrees
GlobalAxisofGravity Y
BoneLengthAxis Y
ScaleFactor 1.00
[SegmentNames&Hierarchy]
#CHILD	PARENT
MASTER GLOBAL
root MASTER
chest root
L_mid_tent01 root
R_mid_tent01 root
spine01 root
Bip01_Neck chest
L_humerus chest
R_humerus chest
weapon_bone chest
Bip01_Head Bip01_Neck
eye_left_bone Bip01_Head
eye_right_bone Bip01_Head
L_forearm L_humerus
L_front_hand L_forearm
L_weapon_bone L_forearm
L_front_hand01_01 L_front_hand
L_front_hand02_01 L_front_hand
L_front_hand03_01 L_front_hand
L_front_hand01_02 L_front_hand01_01
L_front_hand02_02 L_front_hand02_01
L_front_hand03_02 L_front_hand03_01
R_forearm R_humerus
R_front_hand R_forearm
R_weapon_bone R_forearm
R_front_hand01_01 R_front_hand
R_front_hand02_01 R_front_hand
R_front_hand03_01 R_front_hand
R_front_hand01_02 R_front_hand01_01
R_front_hand02_02 R_front_hand02_01
R_front_hand03_02 R_front_hand03_01
null_rope01_connect L_mid_tent01
Rope1_Seg01 null_rope01_connect
Rope1_Seg02 Rope1_Seg01
Rope1_Seg03 Rope1_Seg02
Rope1_Seg04 Rope1_Seg03
Rope1_Seg05 Rope1_Seg04
Rope1_Seg06 Rope1_Seg05
Rope1_Seg07 Rope1_Seg06
Rope1_Seg09 Rope1_Seg07
L_mid_hand01 Rope1_Seg09
L_mid_hand02 Rope1_Seg09
L_mid_hand03 Rope1_Seg09
null_rope02_connect R_mid_tent01
Rope2_Seg01 null_rope02_connect
Rope2_Seg02 Rope2_Seg01
Rope2_Seg03 Rope2_Seg02
Rope2_Seg04 Rope2_Seg03
Rope2_Seg05 Rope2_Seg04
Rope2_Seg06 Rope2_Seg05
Rope2_Seg07 Rope2_Seg06
Rope2_Seg09 Rope2_Seg07
R_mid_hand01 Rope2_Seg09
R_mid_hand02 Rope2_Seg09
R_mid_hand03 Rope2_Seg09
spine02 spine01
spine03 spine02
pelvis spine03
null_rope03_connect pelvis
null_rope04_connect pelvis
Rope3_Seg01 null_rope03_connect
Rope3_Seg02 Rope3_Seg01
Rope3_Seg03 Rope3_Seg02
Rope3_Seg04 Rope3_Seg03
Rope3_Seg05 Rope3_Seg04
Rope3_Seg06 Rope3_Seg05
Rope3_Seg07 Rope3_Seg06
Rope3_Seg08 Rope3_Seg07
Rope3_Seg09 Rope3_Seg08
R_rear_hand01 Rope3_Seg09
R_rear_hand02 Rope3_Seg09
R_rear_hand03 Rope3_Seg09
Rope4_Seg01 null_rope04_connect
Rope4_Seg02 Rope4_Seg01
Rope4_Seg03 Rope4_Seg02
Rope4_Seg04 Rope4_Seg03
Rope4_Seg05 Rope4_Seg04
Rope4_Seg06 Rope4_Seg05
Rope4_Seg07 Rope4_Seg06
Rope4_Seg08 Rope4_Seg07
Rope4_Seg09 Rope4_Seg08
L_rear_hand01 Rope4_Seg09
L_rear_hand02 Rope4_Seg09
L_rear_hand03 Rope4_Seg09
[BasePosition]
#SegmentName Tx, Ty, Tz, Rx, Ry, Rz, BoneLength
MASTER 0.000000 0.000000 0.000000 -90.000000 0.000000 0.000000 10.000000 
root 0.000000 0.000000 0.000000 0.000000 0.000000 0.000000 10.000000 
chest 0.000000 0.000000 0.000000 0.000000 0.000000 0.000000 10.000000 
L_mid_tent01 0.000000 0.000000 0.000000 0.000000 0.000000 0.000000 10.000000 
R_mid_tent01 0.000000 0.000000 0.000000 0.000000 0.000000 0.000000 10.000000 
spine01 0.000000 0.000000 0.000000 0.000000 0.000000 0.000000 10.000000 
Bip01_Neck 0.000000 0.000000 0.000000 0.000000 0.000000 0.000000 10.000000 
L_humerus 0.000000 0.000000 0.000000 0.000000 0.000000 0.000000 10.000000 
R_humerus 0.000000 0.000000 0.000000 0.000000 0.000000 0.000000 10.000000 
weapon_bone 0.000000 0.000000 0.000000 0.000000 0.000000 0.000000 10.000000 
Bip01_Head 0.000000 0.000000 0.000000 0.000000 0.000000 0.000000 10.000000 
eye_left_bone 0.000000 0.000000 0.000000 0.000000 0.000000 0.000000 10.000000 
eye_right_bone 0.000000 0.000000 0.000000 0.000000 0.000000 0.000000 10.000000 
L_forearm 0.000000 0.000000 0.000000 0.000000 0.000000 0.000000 10.000000 
L_front_hand 0.000000 0.000000 0.000000 0.000000 0.000000 0.000000 10.000000 
L_weapon_bone 0.000000 0.000000 0.000000 0.000000 0.000000 0.000000 10.000000 
L_front_hand01_01 0.000000 0.000000 0.000000 0.000000 0.000000 0.000000 10.000000 
L_front_hand02_01 0.000000 0.000000 0.000000 0.000000 0.000000 0.000000 10.000000 
L_front_hand03_01 0.000000 0.000000 0.000000 0.000000 0.000000 0.000000 10.000000 
L_front_hand01_02 0.000000 0.000000 0.000000 0.000000 0.000000 0.000000 10.000000 
L_front_hand02_02 0.000000 0.000000 0.000000 0.000000 0.000000 0.000000 10.000000 
L_front_hand03_02 0.000000 0.000000 0.000000 0.000000 0.000000 0.000000 10.000000 
R_forearm 0.000000 0.000000 0.000000 0.000000 0.000000 0.000000 10.000000 
R_front_hand 0.000000 0.000000 0.000000 0.000000 0.000000 0.000000 10.000000 
R_weapon_bone 0.000000 0.000000 0.000000 0.000000 0.000000 0.000000 10.000000 
R_front_hand01_01 0.000000 0.000000 0.000000 0.000000 0.000000 0.000000 10.000000 
R_front_hand02_01 0.000000 0.000000 0.000000 0.000000 0.000000 0.000000 10.000000 
R_front_hand03_01 0.000000 0.000000 0.000000 0.000000 0.000000 0.000000 10.000000 
R_front_hand01_02 0.000000 0.000000 0.000000 0.000000 0.000000 0.000000 10.000000 
R_front_hand02_02 0.000000 0.000000 0.000000 0.000000 0.000000 0.000000 10.000000 
R_front_hand03_02 0.000000 0.000000 0.000000 0.000000 0.000000 0.000000 10.000000 
null_rope01_connect 0.000000 0.000000 0.000000 0.000000 0.000000 0.000000 10.000000 
Rope1_Seg01 0.000000 0.000000 0.000000 0.000000 0.000000 0.000000 10.000000 
Rope1_Seg02 0.000000 0.000000 0.000000 0.000000 0.000000 0.000000 10.000000 
Rope1_Seg03 0.000000 0.000000 0.000000 0.000000 0.000000 0.000000 10.000000 
Rope1_Seg04 0.000000 0.000000 0.000000 0.000000 0.000000 0.000000 10.000000 
Rope1_Seg05 0.000000 0.000000 0.000000 0.000000 0.000000 0.000000 10.000000 
Rope1_Seg06 0.000000 0.000000 0.000000 0.000000 0.000000 0.000000 10.000000 
Rope1_Seg07 0.000000 0.000000 0.000000 0.000000 0.000000 0.000000 10.000000 
Rope1_Seg09 0.000000 0.000000 0.000000 0.000000 0.000000 0.000000 10.000000 
L_mid_hand01 0.000000 0.000000 0.000000 0.000000 0.000000 0.000000 10.000000 
L_mid_hand02 0.000000 0.000000 0.000000 0.000000 0.000000 0.000000 10.000000 
L_mid_hand03 0.000000 0.000000 0.000000 0.000000 0.000000 0.000000 10.000000 
null_rope02_connect 0.000000 0.000000 0.000000 0.000000 0.000000 0.000000 10.000000 
Rope2_Seg01 0.000000 0.000000 0.000000 0.000000 0.000000 0.000000 10.000000 
Rope2_Seg02 0.000000 0.000000 0.000000 0.000000 0.000000 0.000000 10.000000 
Rope2_Seg03 0.000000 0.000000 0.000000 0.000000 0.000000 0.000000 10.000000 
Rope2_Seg04 0.000000 0.000000 0.000000 0.000000 0.000000 0.000000 10.000000 
Rope2_Seg05 0.000000 0.000000 0.000000 0.000000 0.000000 0.000000 10.000000 
Rope2_Seg06 0.000000 0.000000 0.000000 0.000000 0.000000 0.000000 10.000000 
Rope2_Seg07 0.000000 0.000000 0.000000 0.000000 0.000000 0.000000 10.000000 
Rope2_Seg09 0.000000 0.000000 0.000000 0.000000 0.000000 0.000000 10.000000 
R_mid_hand01 0.000000 0.000000 0.000000 0.000000 0.000000 0.000000 10.000000 
R_mid_hand02 0.000000 0.000000 0.000000 0.000000 0.000000 0.000000 10.000000 
R_mid_hand03 0.000000 0.000000 0.000000 0.000000 0.000000 0.000000 10.000000 
spine02 0.000000 0.000000 0.000000 0.000000 0.000000 0.000000 10.000000 
spine03 0.000000 0.000000 0.000000 0.000000 0.000000 0.000000 10.000000 
pelvis 0.000000 0.000000 0.000000 0.000000 0.000000 0.000000 10.000000 
null_rope03_connect 0.000000 0.000000 0.000000 0.000000 0.000000 0.000000 10.000000 
null_rope04_connect 0.000000 0.000000 0.000000 0.000000 0.000000 0.000000 10.000000 
Rope3_Seg01 0.000000 0.000000 0.000000 0.000000 0.000000 0.000000 10.000000 
Rope3_Seg02 0.000000 0.000000 0.000000 0.000000 0.000000 0.000000 10.000000 
Rope3_Seg03 0.000000 0.000000 0.000000 0.000000 0.000000 0.000000 10.000000 
Rope3_Seg04 0.000000 0.000000 0.000000 0.000000 0.000000 0.000000 10.000000 
Rope3_Seg05 0.000000 0.000000 0.000000 0.000000 0.000000 0.000000 10.000000 
Rope3_Seg06 0.000000 0.000000 0.000000 0.000000 0.000000 0.000000 10.000000 
Rope3_Seg07 0.000000 0.000000 0.000000 0.000000 0.000000 0.000000 10.000000 
Rope3_Seg08 0.000000 0.000000 0.000000 0.000000 0.000000 0.000000 10.000000 
Rope3_Seg09 0.000000 0.000000 0.000000 0.000000 0.000000 0.000000 10.000000 
R_rear_hand01 0.000000 0.000000 0.000000 0.000000 0.000000 0.000000 10.000000 
R_rear_hand02 0.000000 0.000000 0.000000 0.000000 0.000000 0.000000 10.000000 
R_rear_hand03 0.000000 0.000000 0.000000 0.000000 0.000000 0.000000 10.000000 
Rope4_Seg01 0.000000 0.000000 0.000000 0.000000 0.000000 0.000000 10.000000 
Rope4_Seg02 0.000000 0.000000 0.000000 0.000000 0.000000 0.000000 10.000000 
Rope4_Seg03 0.000000 0.000000 0.000000 0.000000 0.000000 0.000000 10.000000 
Rope4_Seg04 0.000000 0.000000 0.000000 0.000000 0.000000 0.000000 10.000000 
Rope4_Seg05 0.000000 0.000000 0.000000 0.000000 0.000000 0.000000 10.000000 
Rope4_Seg06 0.000000 0.000000 0.000000 0.000000 0.000000 0.000000 10.000000 
Rope4_Seg07 0.000000 0.000000 0.000000 0.000000 0.000000 0.000000 10.000000 
Rope4_Seg08 0.000000 0.000000 0.000000 0.000000 0.000000 0.000000 10.000000 
Rope4_Seg09 0.000000 0.000000 0.000000 0.000000 0.000000 0.000000 10.000000 
L_rear_hand01 0.000000 0.000000 0.000000 0.000000 0.000000 0.000000 10.000000 
L_rear_hand02 0.000000 0.000000 0.000000 0.000000 0.000000 0.000000 10.000000 
L_rear_hand03 0.000000 0.000000 0.000000 0.000000 0.000000 0.000000 10.000000 
#Beginning of Data. Separated by tabs
#Fr	Tx	Ty	Tz	Rx	Ry	Rz	SF
[MASTER]
48 -0.000354 2411.683350 0.000000 0.001660 0.001660 0.001660 2411.683350
49 -0.000354 2411.683350 0.000000 0.001660 0.001660 0.001660 2411.683350
[root]
48 -707.515625 181.245728 1256.146606 -102.697937 -33.776169 -93.068451 1453.042480
49 -664.584229 181.245728 1197.140137 -102.292435 -33.770409 -93.074234 1381.183105
[chest]
48 -84.512650 -34.090519 0.000000 -3.572348 0.802216 176.570068 91.129311
49 -84.512650 -34.090519 0.000000 -3.662515 0.992639 176.883377 91.129311
[L_mid_tent01]
48 27.707542 21.943632 -252.539520 -28.960358 54.795467 34.116001 255.000870
49 27.709431 21.942539 -252.551620 -29.760241 54.381214 33.095749 255.012955
[R_mid_tent01]
48 23.228794 24.509907 226.238495 177.320999 -30.274504 55.069763 228.744751
49 23.228794 24.509907 226.238495 177.986481 -30.648432 54.936729 228.744751
[spine01]
48 -0.361383 -0.195265 0.000000 0.001869 0.001420 15.534143 0.410763
49 -0.361383 -0.195265 0.000000 0.001869 0.001420 15.534143 0.410763
[Bip01_Neck]
48 165.484543 71.581718 0.000119 175.896118 1.177290 24.871183 180.302734
49 165.484543 71.581718 0.000119 175.896118 1.177290 24.871183 180.302734
[L_humerus]
48 -13.983130 -135.272980 -120.471481 -175.532455 43.767174 -57.825146 181.680161
49 -13.983130 -135.272980 -120.471481 -175.906631 44.087578 -57.961868 181.680161
[R_humerus]
48 -13.983309 -135.273102 125.287651 171.224091 -42.571121 -56.739971 184.909012
49 -13.983309 -135.273102 125.287651 171.504761 -42.690193 -56.825588 184.909012
[weapon_bone]
48 235.964890 -300.705902 0.000000 0.000000 -89.951546 -128.212341 382.234833
49 235.964890 -300.705902 0.000000 0.000000 -89.951546 -128.212341 382.234833
[Bip01_Head]
48 159.265137 98.554428 28.639883 -18.833389 -18.805708 -58.728214 189.469269
49 159.481491 99.254852 28.531750 -17.982365 -16.915947 -59.079094 189.999832
[eye_left_bone]
48 -24.626970 125.451866 -64.772606 0.000000 -90.000000 -99.840431 143.318359
49 -24.626970 125.451866 -64.772606 0.000000 -90.000000 -99.840431 143.318359
[eye_right_bone]
48 -24.626970 125.451866 64.327362 0.000000 -89.972023 80.159386 143.117676
49 -24.626970 125.451866 64.327362 0.000000 -89.960434 80.159386 143.117676
[L_forearm]
48 322.776093 0.000000 -0.000119 0.000283 -0.002330 -103.844345 322.776093
49 322.776093 0.000000 -0.000119 0.000277 -0.002331 -103.548759 322.776093
[L_front_hand]
48 241.149185 -0.042021 -3.300071 -178.667953 -1.835447 -27.422350 241.171753
49 241.149185 -0.042021 -3.300071 -178.667953 -1.835447 -27.422350 241.171753
[L_weapon_bone]
48 156.183838 0.000000 0.000000 0.000014 0.000007 0.000001 156.183838
49 156.183838 0.000000 0.000000 0.000014 0.000007 0.000001 156.183838
[L_front_hand01_01]
48 86.095154 20.947098 -0.655860 -0.366594 -0.477154 75.385574 88.609184
49 86.095154 20.947098 -0.655860 -0.366594 -0.477154 75.385574 88.609184
[L_front_hand02_01]
48 86.935165 -11.437475 24.513514 154.403519 -59.888931 -61.371990 91.046425
49 86.935165 -11.437475 24.513514 154.403519 -59.888931 -61.371990 91.046425
[L_front_hand03_01]
48 86.637497 -14.123976 -20.424902 -153.913849 58.118122 -62.702866 90.126129
49 86.637497 -14.123976 -20.424902 -153.913879 58.118130 -62.702892 90.126129
[L_front_hand01_02]
48 71.020905 -0.000179 0.000030 0.000334 -0.002323 -106.379684 71.020905
49 71.020905 -0.000179 0.000030 0.000334 -0.002323 -106.379684 71.020905
[L_front_hand02_02]
48 71.020927 -0.000119 0.000060 0.000334 -0.002323 -106.379684 71.020927
49 71.020927 -0.000119 0.000060 0.000334 -0.002323 -106.379684 71.020927
[L_front_hand03_02]
48 71.020905 -0.000060 0.000060 0.000334 -0.002323 -106.379684 71.020905
49 71.020905 -0.000060 0.000060 0.000334 -0.002323 -106.379684 71.020905
[R_forearm]
48 322.776428 -0.000060 0.000030 0.213162 -0.011680 -88.099449 322.776428
49 322.776428 -0.000060 0.000030 0.213134 -0.012178 -87.831390 322.776428
[R_front_hand]
48 238.847015 -0.006795 2.210259 -1.531694 0.790216 -51.443054 238.857239
49 238.847015 -0.006795 2.210259 -1.531694 0.790216 -51.443054 238.857239
[R_weapon_bone]
48 155.664093 0.002503 -0.000030 0.003487 0.001180 -90.988930 155.664078
49 155.664093 0.002503 -0.000030 0.003487 0.001180 -90.988930 155.664078
[R_front_hand01_01]
48 87.624611 14.231146 22.918642 -154.633499 -59.950619 61.746044 91.683487
49 87.624611 14.231146 22.918642 -154.633484 -59.950607 61.746025 91.683487
[R_front_hand02_01]
48 89.356956 14.367283 -19.491137 154.602661 58.302849 63.744389 92.579636
49 89.356956 14.367283 -19.491137 154.602676 58.302864 63.744389 92.579636
[R_front_hand03_01]
48 87.286232 -22.307278 -0.143439 0.162155 -0.423168 -75.767921 90.091743
49 87.286232 -22.307278 -0.143439 0.162155 -0.423168 -75.767921 90.091743
[R_front_hand01_02]
48 71.020905 0.000060 0.000119 0.002323 -0.000334 106.381714 71.020905
49 71.020905 0.000060 0.000119 0.002323 -0.000334 106.381706 71.020905
[R_front_hand02_02]
48 71.020844 -0.000030 -0.000119 0.002323 -0.000334 106.381714 71.020836
49 71.020844 -0.000030 -0.000119 0.002323 -0.000334 106.381706 71.020836
[R_front_hand03_02]
48 71.020905 0.000000 0.000030 0.002323 -0.000334 106.381714 71.020905
49 71.020905 0.000000 0.000030 0.002323 -0.000334 106.381706 71.020905
[null_rope01_connect]
48 328.732483 0.000000 -0.000238 -125.933838 -15.932963 -158.104538 328.732483
49 328.732483 0.000000 -0.000238 -125.881905 -16.387388 -157.529160 328.732483
[Rope1_Seg01]
48 2.936521 -6.857255 -2.761069 108.336578 5.770813 -160.945343 7.954156
49 3.011054 -6.835594 -2.746868 107.126968 5.902844 -158.037704 7.958460
[Rope1_Seg02]
48 139.999863 -0.000179 0.000000 4.420916 -11.959489 4.332043 139.999863
49 139.999863 -0.000179 0.000000 4.306522 -11.472153 4.698838 139.999863
[Rope1_Seg03]
48 139.999924 0.000060 -0.000060 1.182590 -26.364233 13.217300 139.999924
49 139.999924 0.000060 -0.000060 1.114734 -25.623116 14.114713 139.999924
[Rope1_Seg04]
48 139.999924 -0.000060 -0.000119 -10.721328 -32.220596 29.460306 139.999924
49 139.999924 -0.000060 -0.000119 -10.674140 -31.969070 31.482058 139.999924
[Rope1_Seg05]
48 139.999832 0.000119 -0.000060 -9.257365 -16.433207 6.190269 139.999832
49 139.999832 0.000119 -0.000060 -8.457397 -16.363928 7.390009 139.999832
[Rope1_Seg06]
48 139.999954 0.000119 -0.000060 -18.656176 -14.617855 -8.294898 139.999954
49 139.999954 0.000119 -0.000060 -18.396397 -14.746675 -6.966959 139.999954
[Rope1_Seg07]
48 139.999985 0.000060 0.000000 -16.847103 -10.609240 -15.790385 139.999985
49 139.999985 0.000060 0.000000 -17.966337 -11.419967 -14.702104 139.999985
[Rope1_Seg09]
48 121.602913 0.000119 -0.000089 -89.793175 -1.359789 0.847147 121.602913
49 121.602913 0.000119 -0.000089 -89.793175 -1.359789 0.847147 121.602913
[L_mid_hand01]
48 103.859421 1.038730 8.195221 116.294914 -23.111713 -31.758034 104.187431
49 103.859421 1.038730 8.195221 116.294914 -23.111713 -31.758034 104.187431
[L_mid_hand02]
48 105.572853 -4.139662 -10.864139 -144.219833 17.447468 -35.360519 106.211075
49 105.572853 -4.139662 -10.864139 -144.219833 17.447470 -35.360519 106.211075
[L_mid_hand03]
48 104.641464 17.579376 -3.913581 -17.830778 17.153103 31.982925 106.179977
49 104.641464 17.579376 -3.913581 -17.830776 17.153103 31.982925 106.179977
[null_rope02_connect]
48 328.732849 0.000179 -0.000119 -85.389107 70.949158 27.405783 328.732849
49 328.732849 0.000179 -0.000119 -88.517517 70.666481 24.198788 328.732849
[Rope2_Seg01]
48 0.000052 0.000296 0.000048 -98.241005 45.711426 -8.606832 0.000304
49 0.000052 0.000299 0.000049 -118.708183 44.764923 -23.855146 0.000307
[Rope2_Seg02]
48 139.999741 -0.000060 -0.000119 -1.251753 -3.915321 2.924999 139.999756
49 139.999741 -0.000060 -0.000119 0.773747 -5.125758 1.665218 139.999756
[Rope2_Seg03]
48 140.000107 0.000030 0.000000 -1.506754 -6.046952 4.346774 140.000107
49 140.000107 0.000030 0.000000 0.701961 -8.215252 2.817594 140.000107
[Rope2_Seg04]
48 139.999802 0.000000 -0.000060 -1.649139 -11.090586 6.894298 139.999802
49 139.999802 0.000000 -0.000060 0.780272 -15.854346 4.958124 139.999802
[Rope2_Seg05]
48 139.999985 -0.000060 0.000119 -2.890413 -19.493895 12.411355 139.999985
49 139.999985 -0.000060 0.000119 -1.625203 -26.839878 9.725769 139.999985
[Rope2_Seg06]
48 139.999893 -0.000030 -0.000119 -0.713491 -10.587295 13.539384 139.999893
49 139.999893 -0.000030 -0.000119 -0.837234 -14.467296 13.665207 139.999893
[Rope2_Seg07]
48 139.999893 0.000060 -0.000060 1.145267 -5.826025 8.643061 139.999893
49 139.999893 0.000060 -0.000060 1.804153 -8.189405 9.907348 139.999893
[Rope2_Seg09]
48 121.338966 0.000089 -0.000060 33.793236 -1.359788 -0.847141 121.338966
49 121.338966 0.000089 -0.000060 33.793236 -1.359788 -0.847141 121.338966
[R_mid_hand01]
48 104.680779 11.144459 -10.335981 -41.523792 25.424656 28.595957 105.778534
49 104.680779 11.144459 -10.335981 -41.523792 25.424656 28.595957 105.778534
[R_mid_hand02]
48 104.070427 2.443552 8.231699 72.847389 -32.746803 10.013901 104.424065
49 104.070427 2.443552 8.231699 72.847389 -32.746803 10.013901 104.424065
[R_mid_hand03]
48 106.028137 -11.221827 -5.996406 -167.901306 10.259192 -37.009720 106.788818
49 106.028137 -11.221827 -5.996406 -167.901306 10.259192 -37.009720 106.788818
[spine02]
48 129.756927 0.001550 0.000119 -0.245322 -4.052060 -4.355547 129.756927
49 129.756927 0.001550 0.000119 -0.245322 -4.052060 -4.355547 129.756927
[spine03]
48 78.614006 0.087280 -4.898815 0.369659 4.260734 -4.885720 78.766541
49 78.614006 0.087280 -4.898815 0.369659 4.260734 -4.885720 78.766541
[pelvis]
48 169.435242 0.051022 0.000000 -0.010007 -0.191417 -1.897554 169.435257
49 169.435242 0.051022 0.000000 -0.010007 -0.191417 -1.897554 169.435257
[null_rope03_connect]
48 -1.257226 -2.466202 137.391083 -135.780533 -75.805443 -105.103889 137.418976
49 -1.257226 -2.466202 137.391083 -135.485321 -76.204659 -105.394836 137.418976
[null_rope04_connect]
48 -1.259640 -2.480268 -137.844437 -135.780533 -75.805443 -105.103889 137.872513
49 -1.259640 -2.480268 -137.844437 -135.485321 -76.204659 -105.394836 137.872513
[Rope3_Seg01]
48 -0.000007 0.000191 -0.000096 149.533875 -36.184559 2.380910 0.000214
49 -0.000006 0.000195 -0.000098 149.547287 -40.372482 0.476018 0.000218
[Rope3_Seg02]
48 139.999924 -0.000119 0.000060 -10.246004 1.338742 -4.484407 139.999924
49 139.999924 -0.000119 0.000060 -8.702726 1.822499 -4.314784 139.999924
[Rope3_Seg03]
48 139.999924 -0.000119 0.000119 -22.171261 3.362123 -6.679924 139.999924
49 139.999924 -0.000119 0.000119 -17.218470 3.900987 -6.377263 139.999924
[Rope3_Seg04]
48 139.999924 0.000119 0.000000 -42.045937 10.188601 -9.059943 139.999924
49 139.999924 0.000119 0.000000 -33.437691 10.149386 -9.099661 139.999924
[Rope3_Seg05]
48 139.999924 -0.000238 0.000060 -32.907124 32.791519 0.418886 139.999924
49 139.999924 -0.000238 0.000060 -36.515793 32.413139 -5.238327 139.999924
[Rope3_Seg06]
48 139.999893 -0.000119 -0.000060 -2.485916 21.746244 14.837566 139.999893
49 139.999893 -0.000119 -0.000060 -4.332510 23.344488 12.050756 139.999893
[Rope3_Seg07]
48 139.999771 0.000060 -0.000119 -0.238040 5.793836 2.995845 139.999771
49 139.999771 0.000060 -0.000119 -0.439333 6.048931 2.435148 139.999771
[Rope3_Seg08]
48 139.999985 -0.000060 0.000000 0.211263 6.247597 3.748458 139.999985
49 139.999985 -0.000060 0.000000 0.044329 6.559549 3.165139 139.999985
[Rope3_Seg09]
48 90.185997 -0.000179 -0.000060 89.793228 -1.359877 -0.847183 90.185997
49 90.185997 -0.000179 -0.000060 89.793228 -1.359877 -0.847183 90.185997
[R_rear_hand01]
48 103.366196 -6.073594 -10.757982 -158.627975 33.644131 -23.327255 104.101845
49 103.366196 -6.073594 -10.757982 -158.627975 33.644131 -23.327255 104.101845
[R_rear_hand02]
48 100.509819 12.039542 -7.992327 -36.327797 26.496241 23.332451 101.543350
49 100.509819 12.039542 -7.992327 -36.327797 26.496241 23.332451 101.543350
[R_rear_hand03]
48 101.539970 5.215704 5.435467 73.054977 -27.152536 27.950705 101.819031
49 101.539970 5.215704 5.435467 73.054977 -27.152536 27.950705 101.819031
[Rope4_Seg01]
48 -0.000032 0.000026 0.000105 100.402298 -41.254478 -164.126923 0.000113
49 -0.000032 0.000026 0.000104 104.511673 -42.361839 -166.247406 0.000112
[Rope4_Seg02]
48 139.999985 0.000060 0.000119 17.193527 -9.887687 6.914504 139.999985
49 139.999985 0.000060 0.000119 16.902761 -9.617711 6.603547 139.999985
[Rope4_Seg03]
48 139.999924 0.000000 -0.000238 24.166260 -8.948439 12.061299 139.999924
49 139.999924 0.000000 -0.000238 23.436958 -8.580822 11.237180 139.999924
[Rope4_Seg04]
48 139.999985 0.000000 0.000119 16.866030 -0.336391 14.475005 139.999985
49 139.999985 0.000000 0.000119 16.639786 -0.471272 13.565380 139.999985
[Rope4_Seg05]
48 139.999802 -0.000060 -0.000119 12.540579 -0.734873 13.526188 139.999802
49 139.999802 -0.000060 -0.000119 13.118990 -1.305509 12.968915 139.999802
[Rope4_Seg06]
48 139.999924 0.000000 0.000060 13.854876 -2.968340 18.711823 139.999924
49 139.999924 0.000000 0.000060 14.812708 -3.785716 17.699322 139.999924
[Rope4_Seg07]
48 139.999802 0.000000 0.000000 8.061187 1.662796 16.117224 139.999802
49 139.999802 0.000000 0.000000 8.769325 1.076701 15.127741 139.999802
[Rope4_Seg08]
48 139.999924 0.000000 0.000119 1.361414 2.588177 8.569463 139.999924
49 139.999924 0.000000 0.000119 1.815147 2.331560 8.188787 139.999924
[Rope4_Seg09]
48 90.185791 0.000060 0.000060 -135.617828 2.228885 0.850567 90.185791
49 90.185791 0.000060 0.000060 -135.617828 2.228885 0.850567 90.185791
[L_rear_hand01]
48 101.696655 -8.392275 -7.654577 -33.685818 -15.212530 149.017090 102.329041
49 101.696655 -8.392275 -7.654577 -33.685818 -15.212530 149.017090 102.329041
[L_rear_hand02]
48 102.726799 -1.568258 5.773216 83.407906 30.330435 172.796509 102.900848
49 102.726799 -1.568258 5.773216 83.407906 30.330435 172.796509 102.900848
[L_rear_hand03]
48 104.552910 9.721220 -10.420293 -160.801239 -15.606593 -150.211823 105.519653
49 104.552910 9.721220 -10.420293 -160.801224 -15.606595 -150.211823 105.519653
